<svg width="84" height="36" viewBox="0 0 84 36" fill="none" xmlns="http://www.w3.org/2000/svg">
<path d="M1.31297 15.455H3.90973V13.713H4.06291C4.47869 14.5192 5.3467 15.6494 7.27239 15.6494C9.91292 15.6494 11.8897 13.5834 11.8897 9.94102C11.8897 6.25543 9.85457 4.25427 7.2651 4.25427C5.28835 4.25427 4.4641 5.42761 4.06291 6.22664H3.9535V0.712644H1.31297V15.455ZM3.90244 9.92663C3.90244 7.7815 4.8361 6.3922 6.53567 6.3922C8.29359 6.3922 9.19808 7.86788 9.19808 9.92663C9.19808 11.9998 8.279 13.5114 6.53567 13.5114C4.85069 13.5114 3.90244 12.0718 3.90244 9.92663Z" fill="black"/>
<path d="M13.3129 15.455H15.9534V8.95484C15.9534 7.55115 17.0256 6.55776 18.4772 6.55776C18.9222 6.55776 19.4765 6.63695 19.7026 6.70893V4.31186C19.4619 4.26866 19.0462 4.23987 18.7544 4.23987C17.4706 4.23987 16.3983 4.95971 15.9899 6.24103H15.8731V4.39824H13.3129V15.455Z" fill="black"/>
<path d="M20.6353 15.455H23.2758V4.39824H20.6353V15.455ZM21.9628 2.82898C22.8017 2.82898 23.4873 2.19552 23.4873 1.41809C23.4873 0.633461 22.8017 0 21.9628 0C21.1167 0 20.431 0.633461 20.431 1.41809C20.431 2.19552 21.1167 2.82898 21.9628 2.82898Z" fill="black"/>
<path d="M35.2866 19.6013V4.39824H32.6899V6.22664H32.5367C32.1355 5.42761 31.3113 4.25427 29.3345 4.25427C26.745 4.25427 24.7099 6.25543 24.7099 9.94102C24.7099 13.5834 26.6867 15.6494 29.3272 15.6494C31.2529 15.6494 32.1209 14.5192 32.5367 13.713H32.6461V19.6013H35.2866ZM32.6972 9.92663C32.6972 12.0718 31.7489 13.5114 30.0639 13.5114C28.3206 13.5114 27.4015 11.9998 27.4015 9.92663C27.4015 7.86788 28.306 6.3922 30.0639 6.3922C31.7635 6.3922 32.6972 7.7815 32.6972 9.92663Z" fill="black"/>
<path d="M44.3269 10.8048C44.3269 12.4893 43.1087 13.3243 41.9416 13.3243C40.6724 13.3243 39.8263 12.4389 39.8263 11.0352V4.39824H37.1858V11.4383C37.1858 14.0945 38.7176 15.599 40.9204 15.599C42.5981 15.599 43.7798 14.728 44.2904 13.4898H44.4071V15.455H46.9674V4.39824H44.3269V10.8048Z" fill="black"/>
<path d="M53.8212 15.671C56.4325 15.671 58.2269 14.4112 58.6938 12.4893L56.2283 12.2157C55.8709 13.1515 54.9956 13.641 53.8576 13.641C52.1508 13.641 51.0202 12.5325 50.9983 10.6393H58.8032V9.84024C58.8032 5.96029 56.4398 4.25427 53.6826 4.25427C50.4731 4.25427 48.3796 6.57936 48.3796 9.99141C48.3796 13.4611 50.4439 15.671 53.8212 15.671ZM51.0056 8.88285C51.0858 7.47196 52.1435 6.28422 53.7191 6.28422C55.2363 6.28422 56.2575 7.37838 56.2721 8.88285H51.0056Z" fill="black"/>
<path d="M65.8101 4.39824H63.6V1.74922H60.9594V4.39824H59.3693V6.41379H60.9594V12.5612C60.9448 14.6416 62.4766 15.6638 64.4607 15.6062C65.212 15.5846 65.7299 15.4406 66.0144 15.347L65.5694 13.3099C65.4235 13.3459 65.1245 13.4107 64.7962 13.4107C64.1324 13.4107 63.6 13.1803 63.6 12.1293V6.41379H65.8101V4.39824Z" fill="black"/>
<path d="M72.7915 4.39824H70.5814V1.74922H67.9409V4.39824H66.3507V6.41379H67.9409V12.5612C67.9263 14.6416 69.4581 15.6638 71.4421 15.6062C72.1934 15.5846 72.7113 15.4406 72.9958 15.347L72.5508 13.3099C72.4049 13.3459 72.1059 13.4107 71.7776 13.4107C71.1139 13.4107 70.5814 13.1803 70.5814 12.1293V6.41379H72.7915V4.39824Z" fill="black"/>
<path d="M79.018 15.671C81.6294 15.671 83.4237 14.4112 83.8906 12.4893L81.4251 12.2157C81.0677 13.1515 80.1924 13.641 79.0545 13.641C77.3476 13.641 76.217 12.5325 76.1951 10.6393H84V9.84024C84 5.96029 81.6367 4.25427 78.8794 4.25427C75.6699 4.25427 73.5765 6.57936 73.5765 9.99141C73.5765 13.4611 75.6408 15.671 79.018 15.671ZM76.2024 8.88285C76.2827 7.47196 77.3403 6.28422 78.9159 6.28422C80.4331 6.28422 81.4543 7.37838 81.4689 8.88285H76.2024Z" fill="black"/>
<path d="M4.36927 36C7.20674 36 9.62844 34.7187 10.0953 31.8681L11.9918 20.5666H9.85457L9.5555 22.359H9.39503C9.12514 21.6751 8.56348 20.4226 6.47732 20.4226C3.77114 20.4226 1.42238 22.5317 0.838842 26.0518C0.240711 29.579 1.96216 31.4578 4.61728 31.4578C6.66697 31.4578 7.65899 30.3132 8.155 29.6078H8.29359L7.95076 31.7817C7.65899 33.5093 6.28767 34.2652 4.63916 34.2652C2.8083 34.2652 2.30499 33.3654 2.01322 32.7319L0 33.4949C0.379302 34.8482 1.67768 36 4.36927 36ZM5.36129 29.6726C3.39913 29.6726 2.68429 28.1969 3.04171 26.023C3.39913 23.8994 4.60269 22.251 6.58673 22.251C8.47595 22.251 9.3075 23.7843 8.92819 26.023C8.54889 28.3049 7.22863 29.6726 5.36129 29.6726Z" fill="black"/>
<path d="M15.4592 31.8681C17.3119 31.8681 18.5082 30.9395 19.0626 30.1117H19.1501L18.8875 31.6234H21.0174L22.2502 24.281C22.7899 21.0633 20.3464 20.4226 18.5666 20.4226C16.5387 20.4226 14.5109 21.2288 13.4606 23.2444L15.4154 23.7051C15.8823 22.9205 16.8816 22.1646 18.3404 22.1646C19.7409 22.1646 20.2953 22.8989 20.0911 24.1442V24.1946C19.9525 24.9648 19.1209 24.9576 17.0858 25.1952C14.9194 25.4399 12.6582 25.9942 12.2278 28.4992C11.8704 30.666 13.3293 31.8681 15.4592 31.8681ZM16.2032 30.1405C14.9705 30.1405 14.19 29.5934 14.3651 28.528C14.5474 27.3763 15.678 26.966 16.9618 26.8004C17.6767 26.7068 19.3835 26.5197 19.7482 26.2101L19.5075 27.6354C19.2887 28.9455 18.0195 30.1405 16.2032 30.1405Z" fill="black"/>
<path d="M30.1981 20.5666H27.8931L28.338 17.9176H26.1571L25.7121 20.5666H24.0782L23.7937 22.2942H25.4276L24.3335 28.8232C23.9907 30.8243 25.362 31.7961 27.0907 31.7673C27.791 31.7601 28.2797 31.6306 28.5715 31.537L28.4547 29.759C28.3016 29.7878 28.0317 29.8525 27.6816 29.8525C26.974 29.8525 26.3686 29.6222 26.5728 28.3769L27.6013 22.2942H29.9136L30.1981 20.5666Z" fill="black"/>
<path d="M34.601 31.8465C37.0519 31.8465 38.9702 30.6588 39.7726 28.8592L37.774 28.492C37.1977 29.5358 36.1911 30.0685 34.9219 30.0685C32.9525 30.0685 31.9167 29.1471 32.296 26.7428H40.2759L40.3999 25.9798C41.0783 21.9847 38.9192 20.4226 36.3735 20.4226C33.2515 20.4226 30.8007 22.7693 30.2317 26.167C29.6482 29.6006 31.2967 31.8465 34.601 31.8465ZM32.5732 25.1304C32.8941 23.6835 34.3894 22.2006 36.089 22.2006C37.7886 22.2006 38.6785 23.4388 38.3867 25.1304H32.5732Z" fill="black"/>
<path d="M50.8863 23.266C50.7112 21.5312 49.5295 20.4226 47.0859 20.4226C44.5767 20.4226 42.5781 21.7183 42.2498 23.6547C41.9726 25.2456 42.7896 26.2965 44.8174 26.7644L46.6264 27.1747C47.6841 27.4195 48.0852 27.8586 47.9685 28.5424C47.8299 29.4134 46.7504 30.1189 45.2988 30.1117C44.0223 30.1117 43.2929 29.5574 43.2127 28.4704L41.0536 28.7872C41.0973 30.738 42.5708 31.8465 45.1238 31.8465C47.8008 31.8465 49.8942 30.45 50.2298 28.4704C50.4924 26.8796 49.6316 25.9078 47.6476 25.4399L45.9261 25.0368C44.7518 24.7489 44.3141 24.3458 44.4381 23.6331C44.5767 22.7549 45.6344 22.1286 46.889 22.1286C48.2457 22.1286 48.7198 22.8557 48.8511 23.6115L50.8863 23.266Z" fill="black"/>
</svg>
